<svg xmlns="http://www.w3.org/2000/svg" xmlns:xlink="http://www.w3.org/1999/xlink" version="1.1" width="144" height="321.11248" viewBox="0,0,144,321.11248"><g><g data-paper-data="{&quot;isPaintingLayer&quot;:true}" stroke-miterlimit="10" stroke-dasharray="" stroke-dashoffset="0" style="mix-blend-mode: normal"><path d="M168,367.50001v-316h144v316z" fill="none" fill-rule="nonzero" stroke="none" stroke-width="0" stroke-linecap="butt" stroke-linejoin="miter" transform="matrix(1,0,0,1,-168,-46.38752)"/><path d="M178.40908,313.61253v-267.22501h123.18203v267.22501z" fill-opacity="0.01" fill="#000000" fill-rule="nonzero" stroke="none" stroke-width="0" stroke-linecap="butt" stroke-linejoin="miter" transform="matrix(1,0,0,1,-168,-46.38752)"/><path d="M 64.0436 314.4095 C 64.0436 314.4095 59.3642 293.2897 65.4793 268.0352 C 69.1526 252.8649 84.1778 233.0068 85.5181 224.31 C 87.8753 209.0146 83.3875 180.558 83.3875 180.558 L 89.3175 181.4719 C 89.3175 181.4719 93.9748 211.836 91.9861 224.7405 C 90.4664 234.6014 75.5047 251.7751 71.1074 269.2701 C 65.2965 292.3893 69.9736 315.3234 69.9736 315.3234 Z " fill="#000000" fill-rule="nonzero" stroke="#000000" stroke-width="2" stroke-linecap="butt" stroke-linejoin="miter"/><path d="M 126 309.1126 L 114.3334 309.1126 L 114.3334 178.7792 L 126 178.7792 Z " fill="#653600" fill-rule="nonzero" stroke="#000000" stroke-width="2" stroke-linecap="butt" stroke-linejoin="miter"/><path d="M 31 308.4459 L 19.3334 308.4459 L 19.3334 178.1126 L 31 178.1126 Z " fill="#653600" fill-rule="nonzero" stroke="#000000" stroke-width="2" stroke-linecap="butt" stroke-linejoin="miter"/><path d="M 6.8334 189.2792 L 6.8334 169.9459 L 137.1667 169.9459 L 137.1667 189.2792 Z " fill="#804400" fill-rule="nonzero" stroke="#000000" stroke-width="2" stroke-linecap="butt" stroke-linejoin="miter"/><path d="M 64.9 164.2626 L 64.9 131.5126 L 79.1 131.5126 L 79.1 164.2626 Z " fill="#a1a5a6" fill-rule="nonzero" stroke="#000000" stroke-width="2" stroke-linecap="butt" stroke-linejoin="miter"/><path d="M 36.5 172.8126 L 42.2377 161.4126 L 103.5075 161.4126 L 109.45 172.8126 Z " fill="#babebf" fill-rule="nonzero" stroke="#000000" stroke-width="2" stroke-linecap="butt" stroke-linejoin="miter"/><path d="M 45.298 72.6749 L 98.702 72.6749 C 107.6274 72.6749 114.8128 79.8602 114.8128 88.7856 L 114.8128 134.4396 C 114.8128 143.3649 107.6274 150.5503 98.702 150.5503 L 45.298 150.5503 C 36.3727 150.5503 29.1873 143.3649 29.1873 134.4396 L 29.1873 88.7856 C 29.1873 79.8603 36.3727 72.6749 45.298 72.6749 Z " fill="#babebf" fill-rule="evenodd" stroke="#000000" stroke-width="2" stroke-linecap="round" stroke-linejoin="round"/><path d="M 50.2876 79.9508 L 93.7125 79.9508 C 100.9701 79.9508 106.8128 85.7935 106.8128 93.051 L 106.8128 130.1741 C 106.8128 137.4316 100.9701 143.2744 93.7125 143.2744 L 50.2876 143.2744 C 43.0301 143.2744 37.1874 137.4316 37.1874 130.1741 L 37.1874 93.051 C 37.1874 85.7935 43.0301 79.9508 50.2876 79.9508 Z " fill="#000000" fill-rule="evenodd" stroke="#000000" stroke-width="2" stroke-linecap="round" stroke-linejoin="round"/><path d="M216.85723,148.83437c0,-2.92811 2.3737,-5.30182 5.30182,-5.30182c2.92811,0 5.30182,2.3737 5.30182,5.30182c0,2.92811 -2.37371,5.30182 -5.30182,5.30182c-2.92811,0 -5.30182,-2.37371 -5.30182,-5.30182z" fill="#ffffff" fill-rule="nonzero" stroke="none" stroke-width="0" stroke-linecap="butt" stroke-linejoin="miter" transform="matrix(1,0,0,1,-168,-46.38752)"/><path d="M252.53927,148.83437c0,-2.92811 2.37371,-5.30182 5.30182,-5.30182c2.92811,0 5.30181,2.3737 5.30181,5.30182c0,2.92811 -2.3737,5.30182 -5.30181,5.30182c-2.92811,0 -5.30182,-2.37371 -5.30182,-5.30182z" fill="#ffffff" fill-rule="nonzero" stroke="none" stroke-width="0" stroke-linecap="butt" stroke-linejoin="miter" transform="matrix(1,0,0,1,-168,-46.38752)"/><path d="M226.45098,161.5419h27.09818l-13.12831,24.06857z" fill="#ffffff" fill-rule="nonzero" stroke="none" stroke-width="0" stroke-linecap="butt" stroke-linejoin="miter" transform="matrix(1,0,0,1,-168,-46.38752)"/><path d="M 42.5 112.184 L 45.3572 115.8983 L 45.6429 111.184 L 48.6429 115.4697 L 48.7858 110.7554 L 51.9286 115.8983 " fill="none" fill-rule="nonzero" stroke="#ffffff" stroke-width="0.5" stroke-linecap="round" stroke-linejoin="miter"/><path d="M 92.6429 112.184 L 95.5 115.8983 L 95.7857 111.184 L 98.7857 115.4697 L 98.9286 110.7554 L 102.0714 115.8983 " fill="none" fill-rule="nonzero" stroke="#ffffff" stroke-width="0.5" stroke-linecap="round" stroke-linejoin="miter"/><g fill-rule="nonzero" stroke-linecap="butt" stroke-linejoin="miter"><path d="M 72.6736 40.2766 L 72.6736 22.8599 L 77.9236 22.8599 L 77.9236 40.2766 Z " fill="#fc0000" stroke-width="2" stroke="#000000"/><path d="M 40.9237 71.7118 C 40.9237 56.9382 46.0934 37.5196 74.7987 37.9618 C 107.2573 38.4618 108.6737 56.9382 108.6737 71.7118 C 108.6737 72.9099 91.9901 76.9618 74.7987 76.9618 C 57.6652 76.9618 40.9237 72.9557 40.9237 71.7118 Z " fill="#fce600" stroke-width="2" stroke="#000000"/><path d="M 89.1736 56.4618 C 86.0611 40.2495 73.082 37.9353 74.7986 37.9618 C 107.2573 38.4618 108.6736 56.9382 108.6736 71.7118 C 108.6736 72.5013 101.4293 74.5299 91.5691 75.8219 C 91.5691 75.8219 90.5062 63.4029 89.1736 56.4618 Z " fill="#0b00ff" stroke-width="2" stroke="#000000"/><path d="M 40.9237 71.7118 C 40.9237 56.9382 46.0934 37.5196 74.7987 37.9618 C 76.8782 37.9938 62.8627 43.5267 61.4237 58.4618 C 60.5859 67.1572 61.5487 75.7118 61.5487 75.7118 C 61.5487 75.7118 40.9237 72.9557 40.9237 71.7118 Z " fill="#fc0000" stroke-width="2" stroke="#000000"/><path d="M 15.9237 85.4618 C 15.9237 85.4618 26.7597 77.3326 31.6985 74.6093 C 34.9174 72.8344 42.6737 70.7118 42.6737 70.7118 C 42.6737 70.7118 59.3358 66.4618 67.4237 66.4618 C 77.3667 66.4618 96.6737 73.9618 96.6737 73.9618 C 96.6737 73.9618 88.8768 76.0603 85.2982 77.7368 C 80.1856 80.1319 68.9237 86.9618 68.9237 86.9618 C 68.9237 86.9618 54.0486 82.2118 45.1737 82.2118 C 35.6744 82.2118 15.9237 85.4618 15.9237 85.4618 Z " fill="#00ff15" stroke-width="2" stroke="#000000"/><path d="M 54.1406 32.2997 C 54.1406 32.2997 53.3819 30.312 53.3819 29.2997 C 53.3819 28.4528 54.1406 26.6331 54.1406 26.6331 L 75.2555 29.9664 L 96.7498 26.6331 C 96.7498 26.6331 97.3819 28.5514 97.3819 29.4664 C 97.3819 30.437 96.7498 32.2998 96.7498 32.2998 L 75.2555 30.1331 Z " fill="#0b00ff" stroke-width="2" stroke="#000000"/></g></g></g></svg>